{"title":"Paul McCartney - Wingspan (Hits &amp; History)","uid":4890897,"size":1082507827,"categoryP":"audio","categoryS":"flac","magnet":"?xt=urn:btih:1e0cb7b463dde8f225b3c9ce801207c28c0b1420&amp;dn=Paul+McCartney+-+Wingspan+%28Hits+%26+History%29&amp;tr=udp%3A%2F%2Ftracker.openbittorrent.com%3A80&amp;tr=udp%3A%2F%2Fopen.demonii.com%3A1337&amp;tr=udp%3A%2F%2Ftracker.coppersurfer.tk%3A6969&amp;tr=udp%3A%2F%2Fexodus.desync.com%3A6969","seeders":0,"leechers":1,"uploader":"sowingmyseed","files":43,"time":1241983637,"description":"Exact Audio Copy V0.99 prebeta 4 from 23. January 2008\n\nEAC extraction logfile from 9. May 2009, 20:10\n\nPaul McCartney / Wingspan: Hits &amp; History (Disc 1)\n\nUsed drive  : ATAPI   DVD D  DH16D3P   Adapter: 0  ID: 1\n\nRead mode               : Secure\nUtilize accurate stream : Yes\nDefeat audio cache      : No\nMake use of C2 pointers : No\n\nRead offset correction                      : 6\nOverread into Lead-In and Lead-Out          : No\nFill up missing offset samples with silence : Yes\nDelete leading and trailing silent blocks   : No\nNull samples used in CRC calculations       : No\nUsed interface                              : Installed external ASPI interface\nGap handling                                : Not detected, thus appended to previous track\n\nUsed output format : Internal WAV Routines\nSample format      : 44.100 Hz; 16 Bit; Stereo\n\n\nTOC of the extracted CD\n\n     Track |   Start  |  Length  | Start sector | End sector \n    ---------------------------------------------------------\n        1  |  0:00.00 |  3:57.02 |         0    |    17776   \n        2  |  3:57.02 |  5:13.05 |     17777    |    41256   \n        3  |  9:10.07 |  3:43.13 |     41257    |    57994   \n        4  | 12:53.20 |  3:12.57 |     57995    |    72451   \n        5  | 16:06.02 |  4:08.48 |     72452    |    91099   \n        6  | 20:14.50 |  4:08.40 |     91100    |   109739   \n        7  | 24:23.15 |  5:55.05 |    109740    |   136369   \n        8  | 30:18.20 |  3:26.67 |    136370    |   151886   \n        9  | 33:45.12 |  4:35.20 |    151887    |   172531   \n       10  | 38:20.32 |  3:09.28 |    172532    |   186734   \n       11  | 41:29.60 |  5:10.55 |    186735    |   210039   \n       12  | 46:40.40 |  4:21.47 |    210040    |   229661   \n       13  | 51:02.12 |  3:03.70 |    229662    |   243456   \n       14  | 54:06.07 |  4:45.73 |    243457    |   264904   \n       15  | 58:52.05 |  4:50.67 |    264905    |   286721   \n       16  | 63:42.72 |  3:13.50 |    286722    |   301246   \n       17  | 66:56.47 |  3:28.68 |    301247    |   316914   \n       18  | 70:25.40 |  4:47.52 |    316915    |   338491   \n\n\nTrack  1\n\n     Filename E:MusicPaul McCartneyWingspan Hits &amp; History (Disc 1)Paul McCartney - Wingspan- Hits &amp; History (Disc 1) - 01. Listen to What the Man Said [Venus and Mars].wav\n\n     Peak level 92.2 %\n     Track quality 100.0 %\n     Copy CRC F7FAA423\n     Accurately ripped (confidence 20)  [29E5CE3A]\n     Copy OK\n\nTrack  2\n\n     Filename E:MusicPaul McCartneyWingspan Hits &amp; History (Disc 1)Paul McCartney - Wingspan- Hits &amp; History (Disc 1) - 02. Band on the Run [Band on the Run].wav\n\n     Peak level 87.4 %\n     Track quality 100.0 %\n     Copy CRC CBFAA3B1\n     Accurately ripped (confidence 20)  [C823D93D]\n     Copy OK\n\nTrack  3\n\n     Filename E:MusicPaul McCartneyWingspan Hits &amp; History (Disc 1)Paul McCartney - Wingspan- Hits &amp; History (Disc 1) - 03. Another Day [Single].wav\n\n     Peak level 95.2 %\n     Track quality 100.0 %\n     Copy CRC AF6DF802\n     Accurately ripped (confidence 20)  [07633458]\n     Copy OK\n\nTrack  4\n\n     Filename E:MusicPaul McCartneyWingspan Hits &amp; History (Disc 1)Paul McCartney - Wingspan- Hits &amp; History (Disc 1) - 04. Live and Let Die [Single].wav\n\n     Suspicious position 0:01:27\n\n     Peak level 97.7 %\n     Track quality 99.6 %\n     Copy CRC 1C57C993\n     Cannot be verified as accurate (confidence 108)  [56869FC4], AccurateRip returned [E38CF553]\n     Copy finished\n\nTrack  5\n\n     Filename E:MusicPaul McCartneyWingspan Hits &amp; History (Disc 1)Paul McCartney - Wingspan- Hits &amp; History (Disc 1) - 05. Jet [Band on the Run].wav\n\n     Peak level 84.5 %\n     Track quality 100.0 %\n     Copy CRC F9E4BE26\n     Accurately ripped (confidence 19)  [C48AD452]\n     Copy OK\n\nTrack  6\n\n     Filename E:MusicPaul McCartneyWingspan Hits &amp; History (Disc 1)Paul McCartney - Wingspan- Hits &amp; History (Disc 1) - 06. My Love.wav\n\n     Peak level 98.3 %\n     Track quality 100.0 %\n     Copy CRC 086F18D5\n     Accurately ripped (confidence 20)  [1C798C89]\n     Copy OK\n\nTrack  7\n\n     Filename E:MusicPaul McCartneyWingspan Hits &amp; History (Disc 1)Paul McCartney - Wingspan- Hits &amp; History (Disc 1) - 07. Silly Love Songs.wav\n\n     Peak level 94.4 %\n     Track quality 100.0 %\n     Copy CRC 5C8E6055\n     Accurately ripped (confidence 20)  [CA8757AB]\n     Copy OK\n\nTrack  8\n\n     Filename E:MusicPaul McCartneyWingspan Hits &amp; History (Disc 1)Paul McCartney - Wingspan- Hits &amp; History (Disc 1) - 08. Pipes Of Peace.wav\n\n     Peak level 87.9 %\n     Track quality 99.5 %\n     Copy CRC 806C16C6\n     Cannot be verified as accurate (confidence 102)  [37315B4C], AccurateRip returned [EE5FE402]\n     Copy OK\n\nTrack  9\n\n     Filename E:MusicPaul McCartneyWingspan Hits &amp; History (Disc 1)Paul McCartney - Wingspan- Hits &amp; History (Disc 1) - 09. C Moon.wav\n\n     Peak level 75.1 %\n     Track quality 99.9 %\n     Copy CRC 01E1874A\n     Accurately ripped (confidence 20)  [6CCAF799]\n     Copy OK\n\nTrack 10\n\n     Filename E:MusicPaul McCartneyWingspan Hits &amp; History (Disc 1)Paul McCartney - Wingspan- Hits &amp; History (Disc 1) - 10. Hi Hi Hi [Single].wav\n\n     Peak level 90.0 %\n     Track quality 100.0 %\n     Copy CRC D3FC0AA9\n     Accurately ripped (confidence 19)  [7A6407E2]\n     Copy OK\n\nTrack 11\n\n     Filename E:MusicPaul McCartneyWingspan Hits &amp; History (Disc 1)Paul McCartney - Wingspan- Hits &amp; History (Disc 1) - 11. Let 'Em In.wav\n\n     Peak level 89.1 %\n     Track quality 100.0 %\n     Copy CRC 929C0EEA\n     Accurately ripped (confidence 20)  [3698AA54]\n     Copy OK\n\nTrack 12\n\n     Filename E:MusicPaul McCartneyWingspan Hits &amp; History (Disc 1)Paul McCartney - Wingspan- Hits &amp; History (Disc 1) - 12. Goodnight Tonight [Single].wav\n\n     Peak level 95.1 %\n     Track quality 100.0 %\n     Copy CRC 5DA1D26F\n     Accurately ripped (confidence 20)  [E81EA4FE]\n     Copy OK\n\nTrack 13\n\n     Filename E:MusicPaul McCartneyWingspan Hits &amp; History (Disc 1)Paul McCartney - Wingspan- Hits &amp; History (Disc 1) - 13. Junior's Farm (DJ Edit).wav\n\n     Peak level 86.9 %\n     Track quality 99.9 %\n     Copy CRC 221D3F40\n     Accurately ripped (confidence 19)  [CE5AAD1B]\n     Copy OK\n\nTrack 14\n\n     Filename E:MusicPaul McCartneyWingspan Hits &amp; History (Disc 1)Paul McCartney - Wingspan- Hits &amp; History (Disc 1) - 14. Mull Of Kintyre [Single].wav\n\n     Peak level 90.4 %\n     Track quality 100.0 %\n     Copy CRC CC392809\n     Accurately ripped (confidence 20)  [43A474BB]\n     Copy OK\n\nTrack 15\n\n     Filename E:MusicPaul McCartneyWingspan Hits &amp; History (Disc 1)Paul McCartney - Wingspan- Hits &amp; History (Disc 1) - 15. Uncle Albert-Admiral Halsey.wav\n\n     Peak level 86.6 %\n     Track quality 99.9 %\n     Copy CRC 5A564F6A\n     Accurately ripped (confidence 20)  [FF732094]\n     Copy OK\n\nTrack 16\n\n     Filename E:MusicPaul McCartneyWingspan Hits &amp; History (Disc 1)Paul McCartney - Wingspan- Hits &amp; History (Disc 1) - 16. With A Little Luck (DJ Edit).wav\n\n     Peak level 95.9 %\n     Track quality 100.0 %\n     Copy CRC 3456A41A\n     Accurately ripped (confidence 19)  [88D95C58]\n     Copy OK\n\nTrack 17\n\n     Filename E:MusicPaul McCartneyWingspan Hits &amp; History (Disc 1)Paul McCartney - Wingspan- Hits &amp; History (Disc 1) - 17. Coming Up (Live Version).wav\n\n     Peak level 90.1 %\n     Track quality 100.0 %\n     Copy CRC 27CD4DBF\n     Accurately ripped (confidence 19)  [4C5E29A6]\n     Copy OK\n\nTrack 18\n\n     Filename E:MusicPaul McCartneyWingspan Hits &amp; History (Disc 1)Paul McCartney - Wingspan- Hits &amp; History (Disc 1) - 18. No More Lonely Nights [Give My Regards to Broad Street].wav\n\n     Peak level 91.0 %\n     Track quality 100.0 %\n     Copy CRC DE4D2442\n     Accurately ripped (confidence 18)  [65945C5B]\n     Copy OK\n\n\n16 track(s) accurately ripped\n 2 track(s) could not be verified as accurate\n\nSome tracks could not be verified as accurate\n\nThere were errors\n\nEnd of status report\n\n\nExact Audio Copy V0.99 prebeta 4 from 23. January 2008\n\nEAC extraction logfile from 9. May 2009, 20:21\n\nPaul McCartney &amp; Wings / Wingspan; History - (Disc 2)\n\nUsed drive  : ATAPI   DVD D  DH16D3P   Adapter: 0  ID: 1\n\nRead mode               : Secure\nUtilize accurate stream : Yes\nDefeat audio cache      : No\nMake use of C2 pointers : No\n\nRead offset correction                      : 6\nOverread into Lead-In and Lead-Out          : No\nFill up missing offset samples with silence : Yes\nDelete leading and trailing silent blocks   : No\nNull samples used in CRC calculations       : No\nUsed interface                              : Installed external ASPI interface\nGap handling                                : Not detected, thus appended to previous track\n\nUsed output format : Internal WAV Routines\nSample format      : 44.100 Hz; 16 Bit; Stereo\n\n\nTOC of the extracted CD\n\n     Track |   Start  |  Length  | Start sector | End sector \n    ---------------------------------------------------------\n        1  |  0:00.00 |  4:51.65 |         0    |    21889   \n        2  |  4:51.65 |  0:45.60 |     21890    |    25324   \n        3  |  5:37.50 |  3:23.52 |     25325    |    40601   \n        4  |  9:01.27 |  3:52.55 |     40602    |    58056   \n        5  | 12:54.07 |  3:46.48 |     58057    |    75054   \n        6  | 16:40.55 |  3:26.05 |     75055    |    90509   \n        7  | 20:06.60 |  2:24.67 |     90510    |   101376   \n        8  | 22:31.52 |  2:34.60 |    101377    |   112986   \n        9  | 25:06.37 |  4:05.30 |    112987    |   131391   \n       10  | 29:11.67 |  1:57.03 |    131392    |   140169   \n       11  | 31:08.70 |  2:59.60 |    140170    |   153654   \n       12  | 34:08.55 |  3:46.07 |    153655    |   170611   \n       13  | 37:54.62 |  4:29.68 |    170612    |   190854   \n       14  | 42:24.55 |  2:37.12 |    190855    |   202641   \n       15  | 45:01.67 |  4:44.05 |    202642    |   223946   \n       16  | 49:45.72 |  3:24.48 |    223947    |   239294   \n       17  | 53:10.45 |  3:27.20 |    239295    |   254839   \n       18  | 56:37.65 |  4:12.47 |    254840    |   273786   \n       19  | 60:50.37 |  4:59.43 |    273787    |   296254   \n       20  | 65:50.05 |  4:04.40 |    296255    |   314594   \n       21  | 69:54.45 |  3:36.52 |    314595    |   330846   \n       22  | 73:31.22 |  3:55.30 |    330847    |   348501   \n\n\nTrack  1\n\n     Filename E:MusicPaul McCartneyWingspan (Hits &amp; History)Paul McCartney &amp; Wings - Wingspan; History - (Disc 2) - 01. Let Me Roll It.wav\n\n     Peak level 85.5 %\n     Track quality 99.9 %\n     Copy CRC E429726B\n     Accurately ripped (confidence 24)  [AE87E933]\n     Copy OK\n\nTrack  2\n\n     Filename E:MusicPaul McCartneyWingspan (Hits &amp; History)Paul McCartney &amp; Wings - Wingspan; History - (Disc 2) - 02. The Lovely Linda.wav\n\n     Peak level 81.7 %\n     Track quality 99.7 %\n     Copy CRC F633218E\n     Accurately ripped (confidence 23)  [BBC4210C]\n     Copy OK\n\nTrack  3\n\n     Filename E:MusicPaul McCartneyWingspan (Hits &amp; History)Paul McCartney &amp; Wings - Wingspan; History - (Disc 2) - 03. Daytime Nightime Suffering.wav\n\n     Peak level 91.2 %\n     Track quality 100.0 %\n     Copy CRC BA05EB4B\n     Accurately ripped (confidence 24)  [19F29DBB]\n     Copy OK\n\nTrack  4\n\n     Filename E:MusicPaul McCartneyWingspan (Hits &amp; History)Paul McCartney &amp; Wings - Wingspan; History - (Disc 2) - 04. Maybe I'm Amazed.wav\n\n     Peak level 93.2 %\n     Track quality 100.0 %\n     Copy CRC B789E5AC\n     Accurately ripped (confidence 25)  [ED3E4FB4]\n     Copy OK\n\nTrack  5\n\n     Filename E:MusicPaul McCartneyWingspan (Hits &amp; History)Paul McCartney &amp; Wings - Wingspan; History - (Disc 2) - 05. Helen Wheels.wav\n\n     Peak level 89.7 %\n     Track quality 100.0 %\n     Copy CRC A85D1C9B\n     Accurately ripped (confidence 25)  [C0292ED6]\n     Copy OK\n\nTrack  6\n\n     Filename E:MusicPaul McCartneyWingspan (Hits &amp; History)Paul McCartney &amp; Wings - Wingspan; History - (Disc 2) - 06. Bluebird.wav\n\n     Peak level 92.0 %\n     Track quality 100.0 %\n     Copy CRC A6EC72C9\n     Accurately ripped (confidence 25)  [9279E58F]\n     Copy OK\n\nTrack  7\n\n     Filename E:MusicPaul McCartneyWingspan (Hits &amp; History)Paul McCartney &amp; Wings - Wingspan; History - (Disc 2) - 07. Heart Of The Country.wav\n\n     Peak level 87.5 %\n     Track quality 100.0 %\n     Copy CRC DEA728BE\n     Accurately ripped (confidence 25)  [EFA0BDF9]\n     Copy OK\n\nTrack  8\n\n     Filename E:MusicPaul McCartneyWingspan (Hits &amp; History)Paul McCartney &amp; Wings - Wingspan; History - (Disc 2) - 08. Every Night.wav\n\n     Peak level 87.5 %\n     Track quality 100.0 %\n     Copy CRC 57F38AD1\n     Accurately ripped (confidence 25)  [679BC5A7]\n     Copy OK\n\nTrack  9\n\n     Filename E:MusicPaul McCartneyWingspan (Hits &amp; History)Paul McCartney &amp; Wings - Wingspan; History - (Disc 2) - 09. Take It Away.wav\n\n     Suspicious position 0:02:50\n\n     Peak level 98.8 %\n     Track quality 99.0 %\n     Copy CRC FD6E70EE\n     Cannot be verified as accurate (confidence 58)  [14AADAAB], AccurateRip returned [0A2EC267]\n     Copy finished\n\nTrack 10\n\n     Filename E:MusicPaul McCartneyWingspan (Hits &amp; History)Paul McCartney &amp; Wings - Wingspan; History - (Disc 2) - 10. Junk.wav\n\n     Peak level 83.1 %\n     Track quality 100.0 %\n     Copy CRC 26EA0BB8\n     Cannot be verified as accurate (confidence 56)  [55E79476], AccurateRip returned [C5BCCEA5]\n     Copy OK\n\nTrack 11\n\n     Filename E:MusicPaul McCartneyWingspan (Hits &amp; History)Paul McCartney &amp; Wings - Wingspan; History - (Disc 2) - 11. Man We Was Lonely.wav\n\n     Peak level 84.8 %\n     Track quality 100.0 %\n     Copy CRC CFBF7416\n     Accurately ripped (confidence 24)  [D30271FA]\n     Copy OK\n\nTrack 12\n\n     Filename E:MusicPaul McCartneyWingspan (Hits &amp; History)Paul McCartney &amp; Wings - Wingspan; History - (Disc 2) - 12. Venus And Mars &amp; Rockshow.wav\n\n     Peak level 92.0 %\n     Track quality 100.0 %\n     Copy CRC 3D525742\n     Accurately ripped (confidence 24)  [C453D599]\n     Copy OK\n\nTrack 13\n\n     Filename E:MusicPaul McCartneyWingspan (Hits &amp; History)Paul McCartney &amp; Wings - Wingspan; History - (Disc 2) - 13. Back Seat Of My Car.wav\n\n     Peak level 86.6 %\n     Track quality 100.0 %\n     Copy CRC FB3CEDB0\n     Accurately ripped (confidence 25)  [321BAC54]\n     Copy OK\n\nTrack 14\n\n     Filename E:MusicPaul McCartneyWingspan (Hits &amp; History)Paul McCartney &amp; Wings - Wingspan; History - (Disc 2) - 14. Rockestra Theme.wav\n\n     Peak level 95.1 %\n     Track quality 100.0 %\n     Copy CRC 7EACB6F3\n     Accurately ripped (confidence 25)  [D8FE779A]\n     Copy OK\n\nTrack 15\n\n     Filename E:MusicPaul McCartneyWingspan (Hits &amp; History)Paul McCartney &amp; Wings - Wingspan; History - (Disc 2) - 15. Girlfriend.wav\n\n     Peak level 99.0 %\n     Track quality 100.0 %\n     Copy CRC 0861BEB4\n     Accurately ripped (confidence 24)  [B8891EAF]\n     Copy OK\n\nTrack 16\n\n     Filename E:MusicPaul McCartneyWingspan (Hits &amp; History)Paul McCartney &amp; Wings - Wingspan; History - (Disc 2) - 16. Waterfalls.wav\n\n     Peak level 90.8 %\n     Track quality 100.0 %\n     Copy CRC 0CB1E591\n     Accurately ripped (confidence 25)  [37270078]\n     Copy OK\n\nTrack 17\n\n     Filename E:MusicPaul McCartneyWingspan (Hits &amp; History)Paul McCartney &amp; Wings - Wingspan; History - (Disc 2) - 17. Tomorrow.wav\n\n     Peak level 91.1 %\n     Track quality 100.0 %\n     Copy CRC C9133279\n     Accurately ripped (confidence 25)  [CF8C2FEE]\n     Copy OK\n\nTrack 18\n\n     Filename E:MusicPaul McCartneyWingspan (Hits &amp; History)Paul McCartney &amp; Wings - Wingspan; History - (Disc 2) - 18. Too Many People.wav\n\n     Peak level 89.5 %\n     Track quality 100.0 %\n     Copy CRC 7A41DDBA\n     Accurately ripped (confidence 24)  [5A773FBE]\n     Copy OK\n\nTrack 19\n\n     Filename E:MusicPaul McCartneyWingspan (Hits &amp; History)Paul McCartney &amp; Wings - Wingspan; History - (Disc 2) - 19. Call Me Back Again.wav\n\n     Peak level 91.5 %\n     Track quality 100.0 %\n     Copy CRC 7DBF0D34\n     Accurately ripped (confidence 25)  [555BFFF5]\n     Copy OK\n\nTrack 20\n\n     Filename E:MusicPaul McCartneyWingspan (Hits &amp; History)Paul McCartney &amp; Wings - Wingspan; History - (Disc 2) - 20. Tug Of War.wav\n\n     Peak level 93.7 %\n     Track quality 100.0 %\n     Copy CRC 2E412783\n     Accurately ripped (confidence 25)  [5F90D100]\n     Copy OK\n\nTrack 21\n\n     Filename E:MusicPaul McCartneyWingspan (Hits &amp; History)Paul McCartney &amp; Wings - Wingspan; History - (Disc 2) - 21. Bip Bop &amp; Hey Diddle.wav\n\n     Peak level 78.9 %\n     Track quality 100.0 %\n     Copy CRC 75D81449\n     Accurately ripped (confidence 25)  [79BF7138]\n     Copy OK\n\nTrack 22\n\n     Filename E:MusicPaul McCartneyWingspan (Hits &amp; History)Paul McCartney &amp; Wings - Wingspan; History - (Disc 2) - 22. No More Lonely Nights (Playout Version).wav\n\n     Peak level 95.5 %\n     Track quality 100.0 %\n     Copy CRC 79C7E05D\n     Accurately ripped (confidence 24)  [D6293F03]\n     Copy OK\n\n\n20 track(s) accurately ripped\n 2 track(s) could not be verified as accurate\n\nSome tracks could not be verified as accurate\n\nThere were errors\n\nEnd of status report\n","torrent":{"xt":"urn:btih:1e0cb7b463dde8f225b3c9ce801207c28c0b1420","amp;dn":"Paul+McCartney+-+Wingspan+%28Hits+%26+History%29","amp;tr":["udp%3A%2F%2Ftracker.openbittorrent.com%3A80","udp%3A%2F%2Fopen.demonii.com%3A1337","udp%3A%2F%2Ftracker.coppersurfer.tk%3A6969","udp%3A%2F%2Fexodus.desync.com%3A6969"],"infoHash":"1e0cb7b463dde8f225b3c9ce801207c28c0b1420","infoHashBuffer":{"type":"Buffer","data":[30,12,183,180,99,221,232,242,37,179,201,206,128,18,7,194,140,11,20,32]},"announce":[],"urlList":[]}}